<svg width="1120" height="42" viewBox="0 0 1120 42" fill="none" xmlns="http://www.w3.org/2000/svg">
<line y1="20.5" x2="1120" y2="20.5" stroke="url(#paint0_linear_1218_883)"/>
<g filter="url(#filter0_i_1218_883)">
<rect x="426" width="120" height="42" rx="10" fill="white"/>
<path d="M453.886 27L450.19 16.57H451.968L454.992 25.474H454.642L457.652 16.57H459.43L455.734 27H453.886ZM460.503 27V19.426H462.085V27H460.503ZM460.503 18.39V16.57H462.085V18.39H460.503ZM467.491 27.168C466.735 27.168 466.063 26.9953 465.475 26.65C464.896 26.2953 464.443 25.8193 464.117 25.222C463.79 24.6153 463.627 23.9387 463.627 23.192C463.627 22.4267 463.79 21.75 464.117 21.162C464.453 20.574 464.901 20.112 465.461 19.776C466.021 19.4307 466.655 19.258 467.365 19.258C467.934 19.258 468.443 19.356 468.891 19.552C469.339 19.748 469.717 20.0187 470.025 20.364C470.333 20.7 470.566 21.0873 470.725 21.526C470.893 21.9647 470.977 22.4313 470.977 22.926C470.977 23.0473 470.972 23.1733 470.963 23.304C470.953 23.4347 470.935 23.556 470.907 23.668H464.873V22.408H470.011L469.255 22.982C469.348 22.5247 469.315 22.1187 469.157 21.764C469.007 21.4 468.774 21.1153 468.457 20.91C468.149 20.6953 467.785 20.588 467.365 20.588C466.945 20.588 466.571 20.6953 466.245 20.91C465.918 21.1153 465.666 21.414 465.489 21.806C465.311 22.1887 465.241 22.6553 465.279 23.206C465.232 23.7193 465.302 24.1673 465.489 24.55C465.685 24.9327 465.955 25.2313 466.301 25.446C466.655 25.6607 467.057 25.768 467.505 25.768C467.962 25.768 468.349 25.6653 468.667 25.46C468.993 25.2547 469.25 24.9887 469.437 24.662L470.725 25.292C470.575 25.6467 470.342 25.9687 470.025 26.258C469.717 26.538 469.343 26.762 468.905 26.93C468.475 27.0887 468.004 27.168 467.491 27.168ZM474.355 27L471.751 19.426H473.431L475.419 25.46H474.831L476.861 19.426H478.303L480.319 25.46H479.731L481.733 19.426H483.413L480.795 27H479.367L477.323 20.826H477.841L475.797 27H474.355ZM487.099 27V16.57H490.893C491.593 16.57 492.209 16.7007 492.741 16.962C493.282 17.214 493.702 17.5873 494.001 18.082C494.299 18.5673 494.449 19.1507 494.449 19.832C494.449 20.504 494.295 21.0827 493.987 21.568C493.688 22.0533 493.273 22.4267 492.741 22.688C492.209 22.9493 491.593 23.08 490.893 23.08H488.751V27H487.099ZM488.751 21.61H490.935C491.308 21.61 491.635 21.5353 491.915 21.386C492.195 21.2367 492.414 21.0313 492.573 20.77C492.731 20.4993 492.811 20.182 492.811 19.818C492.811 19.454 492.731 19.1413 492.573 18.88C492.414 18.6093 492.195 18.404 491.915 18.264C491.635 18.1147 491.308 18.04 490.935 18.04H488.751V21.61ZM495.995 27V16.402H497.577V27H495.995ZM501.695 27.168C501.182 27.168 500.729 27.0793 500.337 26.902C499.954 26.7153 499.656 26.4633 499.441 26.146C499.226 25.8193 499.119 25.4367 499.119 24.998C499.119 24.5873 499.208 24.2187 499.385 23.892C499.572 23.5653 499.856 23.29 500.239 23.066C500.622 22.842 501.102 22.6833 501.681 22.59L504.313 22.156V23.402L501.989 23.808C501.569 23.8827 501.261 24.018 501.065 24.214C500.869 24.4007 500.771 24.6433 500.771 24.942C500.771 25.2313 500.878 25.4693 501.093 25.656C501.317 25.8333 501.602 25.922 501.947 25.922C502.376 25.922 502.75 25.8287 503.067 25.642C503.394 25.4553 503.646 25.208 503.823 24.9C504 24.5827 504.089 24.2327 504.089 23.85V21.904C504.089 21.5307 503.949 21.2273 503.669 20.994C503.398 20.7513 503.034 20.63 502.577 20.63C502.157 20.63 501.788 20.742 501.471 20.966C501.163 21.1807 500.934 21.4607 500.785 21.806L499.469 21.148C499.609 20.7747 499.838 20.448 500.155 20.168C500.472 19.8787 500.841 19.6547 501.261 19.496C501.69 19.3373 502.143 19.258 502.619 19.258C503.216 19.258 503.744 19.37 504.201 19.594C504.668 19.818 505.027 20.1307 505.279 20.532C505.54 20.924 505.671 21.3813 505.671 21.904V27H504.159V25.628L504.481 25.67C504.304 25.978 504.075 26.244 503.795 26.468C503.524 26.692 503.212 26.8647 502.857 26.986C502.512 27.1073 502.124 27.168 501.695 27.168ZM507.521 27V19.426H509.033V20.91L508.851 20.714C509.037 20.238 509.336 19.8787 509.747 19.636C510.157 19.384 510.633 19.258 511.175 19.258C511.735 19.258 512.229 19.3793 512.659 19.622C513.088 19.8647 513.424 20.2007 513.667 20.63C513.909 21.0593 514.031 21.554 514.031 22.114V27H512.463V22.534C512.463 22.1513 512.393 21.8293 512.253 21.568C512.113 21.2973 511.912 21.092 511.651 20.952C511.399 20.8027 511.109 20.728 510.783 20.728C510.456 20.728 510.162 20.8027 509.901 20.952C509.649 21.092 509.453 21.2973 509.313 21.568C509.173 21.8387 509.103 22.1607 509.103 22.534V27H507.521ZM518.524 27.168C517.749 27.168 517.068 26.9767 516.48 26.594C515.901 26.2113 515.495 25.698 515.262 25.054L516.48 24.48C516.685 24.9093 516.965 25.25 517.32 25.502C517.684 25.754 518.085 25.88 518.524 25.88C518.897 25.88 519.2 25.796 519.434 25.628C519.667 25.46 519.784 25.2313 519.784 24.942C519.784 24.7553 519.732 24.606 519.63 24.494C519.527 24.3727 519.396 24.2747 519.238 24.2C519.088 24.1253 518.934 24.0693 518.776 24.032L517.586 23.696C516.932 23.5093 516.442 23.2293 516.116 22.856C515.798 22.4733 515.64 22.03 515.64 21.526C515.64 21.0687 515.756 20.672 515.99 20.336C516.223 19.9907 516.545 19.7247 516.956 19.538C517.366 19.3513 517.828 19.258 518.342 19.258C519.032 19.258 519.648 19.4307 520.19 19.776C520.731 20.112 521.114 20.5833 521.338 21.19L520.12 21.764C519.97 21.4 519.732 21.1107 519.406 20.896C519.088 20.6813 518.729 20.574 518.328 20.574C517.982 20.574 517.707 20.658 517.502 20.826C517.296 20.9847 517.194 21.1947 517.194 21.456C517.194 21.6333 517.24 21.7827 517.334 21.904C517.427 22.016 517.548 22.1093 517.698 22.184C517.847 22.2493 518.001 22.3053 518.16 22.352L519.392 22.716C520.017 22.8933 520.498 23.1733 520.834 23.556C521.17 23.9293 521.338 24.3773 521.338 24.9C521.338 25.348 521.216 25.7447 520.974 26.09C520.74 26.426 520.414 26.692 519.994 26.888C519.574 27.0747 519.084 27.168 518.524 27.168Z" fill="#181818"/>
</g>
<rect x="571.5" y="0.5" width="123" height="41" rx="9.5" fill="#050304"/>
<rect x="571.5" y="0.5" width="123" height="41" rx="9.5" stroke="#181818"/>
<path d="M601.167 27.168C600.43 27.168 599.744 27.0327 599.109 26.762C598.484 26.4913 597.938 26.118 597.471 25.642C597.014 25.1567 596.655 24.5873 596.393 23.934C596.132 23.2807 596.001 22.562 596.001 21.778C596.001 21.0033 596.127 20.2893 596.379 19.636C596.641 18.9733 597.005 18.404 597.471 17.928C597.938 17.4427 598.484 17.0693 599.109 16.808C599.735 16.5373 600.421 16.402 601.167 16.402C601.905 16.402 602.563 16.528 603.141 16.78C603.729 17.032 604.224 17.3633 604.625 17.774C605.027 18.1753 605.316 18.614 605.493 19.09L604.009 19.79C603.785 19.23 603.426 18.7773 602.931 18.432C602.446 18.0773 601.858 17.9 601.167 17.9C600.477 17.9 599.865 18.0633 599.333 18.39C598.801 18.7167 598.386 19.1693 598.087 19.748C597.798 20.3267 597.653 21.0033 597.653 21.778C597.653 22.5527 597.798 23.234 598.087 23.822C598.386 24.4007 598.801 24.8533 599.333 25.18C599.865 25.4973 600.477 25.656 601.167 25.656C601.858 25.656 602.446 25.4833 602.931 25.138C603.426 24.7927 603.785 24.34 604.009 23.78L605.493 24.48C605.316 24.9467 605.027 25.3853 604.625 25.796C604.224 26.2067 603.729 26.538 603.141 26.79C602.563 27.042 601.905 27.168 601.167 27.168ZM610.556 27.168C609.828 27.168 609.16 26.9953 608.554 26.65C607.956 26.3047 607.48 25.8333 607.126 25.236C606.771 24.6387 606.594 23.962 606.594 23.206C606.594 22.4407 606.771 21.764 607.126 21.176C607.48 20.5787 607.956 20.112 608.554 19.776C609.151 19.4307 609.818 19.258 610.556 19.258C611.302 19.258 611.97 19.4307 612.558 19.776C613.155 20.112 613.626 20.5787 613.972 21.176C614.326 21.764 614.504 22.4407 614.504 23.206C614.504 23.9713 614.326 24.6527 613.972 25.25C613.617 25.8473 613.141 26.3187 612.544 26.664C611.946 27 611.284 27.168 610.556 27.168ZM610.556 25.698C611.004 25.698 611.4 25.5907 611.746 25.376C612.091 25.1613 612.362 24.8673 612.558 24.494C612.763 24.1113 612.866 23.682 612.866 23.206C612.866 22.73 612.763 22.3053 612.558 21.932C612.362 21.5587 612.091 21.2647 611.746 21.05C611.4 20.8353 611.004 20.728 610.556 20.728C610.117 20.728 609.72 20.8353 609.366 21.05C609.02 21.2647 608.745 21.5587 608.54 21.932C608.344 22.3053 608.246 22.73 608.246 23.206C608.246 23.682 608.344 24.1113 608.54 24.494C608.745 24.8673 609.02 25.1613 609.366 25.376C609.72 25.5907 610.117 25.698 610.556 25.698ZM616.048 27V19.426H617.56V20.91L617.378 20.714C617.565 20.238 617.863 19.8787 618.274 19.636C618.685 19.384 619.161 19.258 619.702 19.258C620.262 19.258 620.757 19.3793 621.186 19.622C621.615 19.8647 621.951 20.2007 622.194 20.63C622.437 21.0593 622.558 21.554 622.558 22.114V27H620.99V22.534C620.99 22.1513 620.92 21.8293 620.78 21.568C620.64 21.2973 620.439 21.092 620.178 20.952C619.926 20.8027 619.637 20.728 619.31 20.728C618.983 20.728 618.689 20.8027 618.428 20.952C618.176 21.092 617.98 21.2973 617.84 21.568C617.7 21.8387 617.63 22.1607 617.63 22.534V27H616.048ZM627.527 27.084C626.734 27.084 626.118 26.86 625.679 26.412C625.24 25.964 625.021 25.334 625.021 24.522V20.854H623.691V19.426H623.901C624.256 19.426 624.531 19.3233 624.727 19.118C624.923 18.9127 625.021 18.6327 625.021 18.278V17.69H626.603V19.426H628.325V20.854H626.603V24.452C626.603 24.7133 626.645 24.9373 626.729 25.124C626.813 25.3013 626.948 25.4413 627.135 25.544C627.322 25.6373 627.564 25.684 627.863 25.684C627.938 25.684 628.022 25.6793 628.115 25.67C628.208 25.6607 628.297 25.6513 628.381 25.642V27C628.25 27.0187 628.106 27.0373 627.947 27.056C627.788 27.0747 627.648 27.084 627.527 27.084ZM632.125 27.168C631.611 27.168 631.159 27.0793 630.767 26.902C630.384 26.7153 630.085 26.4633 629.871 26.146C629.656 25.8193 629.549 25.4367 629.549 24.998C629.549 24.5873 629.637 24.2187 629.815 23.892C630.001 23.5653 630.286 23.29 630.669 23.066C631.051 22.842 631.532 22.6833 632.111 22.59L634.743 22.156V23.402L632.419 23.808C631.999 23.8827 631.691 24.018 631.495 24.214C631.299 24.4007 631.201 24.6433 631.201 24.942C631.201 25.2313 631.308 25.4693 631.523 25.656C631.747 25.8333 632.031 25.922 632.377 25.922C632.806 25.922 633.179 25.8287 633.497 25.642C633.823 25.4553 634.075 25.208 634.253 24.9C634.43 24.5827 634.519 24.2327 634.519 23.85V21.904C634.519 21.5307 634.379 21.2273 634.099 20.994C633.828 20.7513 633.464 20.63 633.007 20.63C632.587 20.63 632.218 20.742 631.901 20.966C631.593 21.1807 631.364 21.4607 631.215 21.806L629.899 21.148C630.039 20.7747 630.267 20.448 630.585 20.168C630.902 19.8787 631.271 19.6547 631.691 19.496C632.12 19.3373 632.573 19.258 633.049 19.258C633.646 19.258 634.173 19.37 634.631 19.594C635.097 19.818 635.457 20.1307 635.709 20.532C635.97 20.924 636.101 21.3813 636.101 21.904V27H634.589V25.628L634.911 25.67C634.733 25.978 634.505 26.244 634.225 26.468C633.954 26.692 633.641 26.8647 633.287 26.986C632.941 27.1073 632.554 27.168 632.125 27.168ZM641.548 27.168C640.792 27.168 640.12 26.9953 639.532 26.65C638.954 26.2953 638.492 25.8193 638.146 25.222C637.81 24.6247 637.642 23.948 637.642 23.192C637.642 22.4453 637.81 21.7733 638.146 21.176C638.482 20.5787 638.944 20.112 639.532 19.776C640.12 19.4307 640.792 19.258 641.548 19.258C642.062 19.258 642.542 19.3513 642.99 19.538C643.438 19.7153 643.826 19.9627 644.152 20.28C644.488 20.5973 644.736 20.966 644.894 21.386L643.508 22.03C643.35 21.638 643.093 21.3253 642.738 21.092C642.393 20.8493 641.996 20.728 641.548 20.728C641.119 20.728 640.732 20.8353 640.386 21.05C640.05 21.2553 639.784 21.5493 639.588 21.932C639.392 22.3053 639.294 22.73 639.294 23.206C639.294 23.682 639.392 24.1113 639.588 24.494C639.784 24.8673 640.05 25.1613 640.386 25.376C640.732 25.5907 641.119 25.698 641.548 25.698C642.006 25.698 642.402 25.5813 642.738 25.348C643.084 25.1053 643.34 24.7833 643.508 24.382L644.894 25.04C644.745 25.4413 644.502 25.8053 644.166 26.132C643.84 26.4493 643.452 26.7013 643.004 26.888C642.556 27.0747 642.071 27.168 641.548 27.168ZM649.717 27.084C648.923 27.084 648.307 26.86 647.869 26.412C647.43 25.964 647.211 25.334 647.211 24.522V20.854H645.881V19.426H646.091C646.445 19.426 646.721 19.3233 646.917 19.118C647.113 18.9127 647.211 18.6327 647.211 18.278V17.69H648.793V19.426H650.515V20.854H648.793V24.452C648.793 24.7133 648.835 24.9373 648.919 25.124C649.003 25.3013 649.138 25.4413 649.325 25.544C649.511 25.6373 649.754 25.684 650.053 25.684C650.127 25.684 650.211 25.6793 650.305 25.67C650.398 25.6607 650.487 25.6513 650.571 25.642V27C650.44 27.0187 650.295 27.0373 650.137 27.056C649.978 27.0747 649.838 27.084 649.717 27.084ZM658.622 27.168C657.847 27.168 657.156 27.0047 656.55 26.678C655.952 26.3513 655.481 25.9033 655.136 25.334C654.8 24.7647 654.632 24.116 654.632 23.388V16.57H656.284V23.318C656.284 23.7753 656.382 24.1813 656.578 24.536C656.783 24.8907 657.058 25.166 657.404 25.362C657.758 25.558 658.164 25.656 658.622 25.656C659.088 25.656 659.494 25.558 659.84 25.362C660.194 25.166 660.47 24.8907 660.666 24.536C660.871 24.1813 660.974 23.7753 660.974 23.318V16.57H662.612V23.388C662.612 24.116 662.444 24.7647 662.108 25.334C661.772 25.9033 661.3 26.3513 660.694 26.678C660.096 27.0047 659.406 27.168 658.622 27.168ZM667.328 27.168C666.554 27.168 665.872 26.9767 665.284 26.594C664.706 26.2113 664.3 25.698 664.066 25.054L665.284 24.48C665.49 24.9093 665.77 25.25 666.124 25.502C666.488 25.754 666.89 25.88 667.328 25.88C667.702 25.88 668.005 25.796 668.238 25.628C668.472 25.46 668.588 25.2313 668.588 24.942C668.588 24.7553 668.537 24.606 668.434 24.494C668.332 24.3727 668.201 24.2747 668.042 24.2C667.893 24.1253 667.739 24.0693 667.58 24.032L666.39 23.696C665.737 23.5093 665.247 23.2293 664.92 22.856C664.603 22.4733 664.444 22.03 664.444 21.526C664.444 21.0687 664.561 20.672 664.794 20.336C665.028 19.9907 665.35 19.7247 665.76 19.538C666.171 19.3513 666.633 19.258 667.146 19.258C667.837 19.258 668.453 19.4307 668.994 19.776C669.536 20.112 669.918 20.5833 670.142 21.19L668.924 21.764C668.775 21.4 668.537 21.1107 668.21 20.896C667.893 20.6813 667.534 20.574 667.132 20.574C666.787 20.574 666.512 20.658 666.306 20.826C666.101 20.9847 665.998 21.1947 665.998 21.456C665.998 21.6333 666.045 21.7827 666.138 21.904C666.232 22.016 666.353 22.1093 666.502 22.184C666.652 22.2493 666.806 22.3053 666.964 22.352L668.196 22.716C668.822 22.8933 669.302 23.1733 669.638 23.556C669.974 23.9293 670.142 24.3773 670.142 24.9C670.142 25.348 670.021 25.7447 669.778 26.09C669.545 26.426 669.218 26.692 668.798 26.888C668.378 27.0747 667.888 27.168 667.328 27.168Z" fill="white"/>
<defs>
<filter id="filter0_i_1218_883" x="426" y="0" width="120" height="46" filterUnits="userSpaceOnUse" color-interpolation-filters="sRGB">
<feFlood flood-opacity="0" result="BackgroundImageFix"/>
<feBlend mode="normal" in="SourceGraphic" in2="BackgroundImageFix" result="shape"/>
<feColorMatrix in="SourceAlpha" type="matrix" values="0 0 0 0 0 0 0 0 0 0 0 0 0 0 0 0 0 0 127 0" result="hardAlpha"/>
<feOffset dy="4"/>
<feGaussianBlur stdDeviation="2"/>
<feComposite in2="hardAlpha" operator="arithmetic" k2="-1" k3="1"/>
<feColorMatrix type="matrix" values="0 0 0 0 0 0 0 0 0 0 0 0 0 0 0 0 0 0 0.05 0"/>
<feBlend mode="normal" in2="shape" result="effect1_innerShadow_1218_883"/>
</filter>
<linearGradient id="paint0_linear_1218_883" x1="1120" y1="21" x2="0" y2="21" gradientUnits="userSpaceOnUse">
<stop/>
<stop offset="0.244792" stop-color="#20BDFF"/>
<stop offset="0.505208" stop-color="#5433FF"/>
<stop offset="0.765625" stop-color="#A5FECB"/>
<stop offset="1"/>
</linearGradient>
</defs>
</svg>
